<svg viewBox="0 0 58 66.667" fill="none" xmlns="http://www.w3.org/2000/svg"><path fill-rule="evenodd" clip-rule="evenodd" d="M37.434 56.755C49.337 53.142 58 42.082 58 29 58 12.984 45.016 0 29 0S0 12.984 0 29c0 13.083 8.663 24.142 20.566 27.755l6.834 9.112a2 2 0 0 0 3.2 0z" fill="#000"/><path fill-rule="evenodd" clip-rule="evenodd" d="M29 55c14.36 0 26-11.64 26-26S43.36 3 29 3 3 14.64 3 29s11.64 26 26 26z" fill="#ffc400"/><mask id="a" mask-type="alpha" maskUnits="userSpaceOnUse" x="7" y="7" width="52" height="52"><path fill-rule="evenodd" clip-rule="evenodd" d="M33 59c14.36 0 26-11.64 26-26S47.36 7 33 7 7 18.64 7 33s11.64 26 26 26z" fill="#fff"/></mask><path fill-rule="evenodd" clip-rule="evenodd" d="M40.932 19.274a1.206 1.206 0 0 1 1.035 1.194v.044a1.46 1.46 0 0 1-1.045 1.4l-2.414.716a.273.273 0 0 0-.156.304c.473 4.18.71 6.807.71 7.883 0 1.702-.589 3.258-1.767 4.668a6.972 6.972 0 0 0-.99 1.571l-.327.718a10.243 10.243 0 0 1-2.085 2.997l-1.418 1.413a3.983 3.983 0 0 1-2.052 1.089l-2.066.401a.988.988 0 0 1-1.091-1.373l.17-.38a4.013 4.013 0 0 1 1.948-1.991l.553-.261c.52-.247.981-.602 1.35-1.044l1.188-1.417a.683.683 0 0 0-.524-1.121h-1.86a5.69 5.69 0 0 0-3.989 1.632c-.546.537-1.338.813-2.374.826-.556 0-1.063.32-1.301.822l-1.787 3.756a2.988 2.988 0 0 1-2.698 1.705H16.51a.455.455 0 0 1-.411-.65l2.184-4.594a5.09 5.09 0 0 0 .494-2.188c0-.666.455-1.246 1.102-1.404.73-.178 1.128-.304 1.194-.378.174-.194.333-.401.476-.614V33.9a4.097 4.097 0 0 1 4.097-4.098h6.51c.811 0 1.5-.593 1.621-1.396l1.268-8.45a1.269 1.269 0 0 1 1.254-1.08h1.4c.68 0 1.758.132 3.233.398z" fill="#c25700" stroke="#75011d" stroke-width="2.261" stroke-linejoin="round"/><path d="m37.117 18.875-1.035-1.724a4.08 4.08 0 0 0-3.498-1.98H31.5a3.983 3.983 0 0 1-3.481-2.047l-.533-.958" stroke="#75011d" stroke-width="2.261" stroke-linecap="round"/><path d="m34.07 15.366-1.048-1.136a4.89 4.89 0 0 1-1.297-3.317" stroke="#75011d" stroke-width="2.261" stroke-linecap="round"/><path d="M37.718 18.876h-5.326" stroke="#75011d" stroke-width="2.261" stroke-linecap="round" stroke-linejoin="round"/><path d="M26.443 29.803h-4.188c-.66 0-1.292-.263-1.757-.733l-.029-.029a2.408 2.408 0 0 1-.697-1.694c0-.611.33-1.176.864-1.475l.45-.263M26.597 37.068c.438-1.112.564-2.061.378-2.847" stroke="#75011d" stroke-width="2.261" stroke-linecap="round"/></svg>
