<?xml version="1.0" encoding="utf-8"?>
<!-- Generator: Adobe Illustrator 21.0.0, SVG Export Plug-In . SVG Version: 6.00 Build 0)  -->
<svg version="1.1" id="Layer_1" xmlns="http://www.w3.org/2000/svg" xmlns:xlink="http://www.w3.org/1999/xlink" x="0px" y="0px"
	 viewBox="0 0 512 512" style="enable-background:new 0 0 512 512;" xml:space="preserve">
<g>
	<path d="M256,0C114.8,0,0,114.8,0,256s114.8,256,256,256s256-114.8,256-256S397.2,0,256,0z M256,19.7
		c130.6,0,236.3,105.7,236.3,236.3S386.6,492.3,256,492.3S19.7,386.6,19.7,256S125.4,19.7,256,19.7z M256,59.1
		C147.5,59.1,59.1,147.5,59.1,256S147.5,452.9,256,452.9S452.9,364.5,452.9,256S364.5,59.1,256,59.1z M256,98.5
		c87.2,0,157.5,70.3,157.5,157.5S343.2,413.5,256,413.5S98.5,343.2,98.5,256S168.8,98.5,256,98.5z M256,137.8
		c-65,0-118.2,53.2-118.2,118.2S191,374.2,256,374.2S374.2,321,374.2,256S321,137.8,256,137.8z M256,177.2c43.8,0,78.8,35,78.8,78.8
		s-35,78.8-78.8,78.8s-78.8-35-78.8-78.8S212.2,177.2,256,177.2z M256,216.6c-21.8,0-39.4,17.6-39.4,39.4s17.6,39.4,39.4,39.4
		s39.4-17.6,39.4-39.4S277.8,216.6,256,216.6z"/>
</g>
</svg>
