<svg viewBox="0 0 58 66.667" fill="none" xmlns="http://www.w3.org/2000/svg"><path fill-rule="evenodd" clip-rule="evenodd" d="M37.434 56.755C49.337 53.142 58 42.082 58 29 58 12.984 45.016 0 29 0S0 12.984 0 29c0 13.083 8.663 24.142 20.566 27.755l6.834 9.112a2 2 0 0 0 3.2 0z" fill="#000"/><path fill-rule="evenodd" clip-rule="evenodd" d="M29 55c14.36 0 26-11.64 26-26S43.36 3 29 3 3 14.64 3 29s11.64 26 26 26z" fill="#ff9100"/><mask id="a" mask-type="alpha" maskUnits="userSpaceOnUse" x="7" y="7" width="52" height="52"><path fill-rule="evenodd" clip-rule="evenodd" d="M33 59c14.36 0 26-11.64 26-26S47.36 7 33 7 7 18.64 7 33s11.64 26 26 26z" fill="#fff"/></mask><path fill="#c4c4c4" stroke="#75011d" stroke-width="2.261" stroke-linejoin="round" d="M17.696 27.87h5.652v13.565h-5.652zM34.652 27.87h5.652v13.565h-5.652z"/><mask id="b" maskUnits="userSpaceOnUse" x="15.305" y="19.826" width="35" height="15" fill="#000"><path fill="#fff" d="M15.305 19.826h35v15h-35z"/><path fill-rule="evenodd" clip-rule="evenodd" d="M47.696 31.156c0 .394-.32.714-.714.714H19.019a.714.714 0 0 1-.714-.714V23.54c0-.394.32-.714.714-.714h27.963c.394 0 .714.32.714.714z"/></mask><path fill-rule="evenodd" clip-rule="evenodd" d="M43.696 27.156c0 .394-.32.714-.714.714H15.019a.714.714 0 0 1-.714-.714V19.54c0-.394.32-.714.714-.714h27.963c.394 0 .714.32.714.714z" fill="#fff"/><path clip-rule="evenodd" d="M47.696 31.156c0 .394-.32.714-.714.714H19.019a.714.714 0 0 1-.714-.714V23.54c0-.394.32-.714.714-.714h27.963c.394 0 .714.32.714.714z" stroke="#75011d" stroke-width="4.522" mask="url(#b)" transform="translate(-4 -4)"/><mask id="d" mask-type="alpha" maskUnits="userSpaceOnUse" x="17" y="21" width="32" height="13"><mask id="c" mask-type="luminance" maskUnits="userSpaceOnUse" x="16.305" y="20.826" width="33" height="13" fill="#000"><path fill="#fff" d="M16.305 20.826h33v13h-33z"/><path fill-rule="evenodd" clip-rule="evenodd" d="M47.696 31.156c0 .394-.32.714-.714.714H19.019a.714.714 0 0 1-.714-.714V23.54c0-.394.32-.714.714-.714h27.963c.394 0 .714.32.714.714z"/></mask><path fill-rule="evenodd" clip-rule="evenodd" d="M47.696 31.156c0 .394-.32.714-.714.714H19.019a.714.714 0 0 1-.714-.714V23.54c0-.394.32-.714.714-.714h27.963c.394 0 .714.32.714.714z" fill="#fff"/><path fill-rule="evenodd" clip-rule="evenodd" d="M47.696 31.156c0 .394-.32.714-.714.714H19.019a.714.714 0 0 1-.714-.714V23.54c0-.394.32-.714.714-.714h27.963c.394 0 .714.32.714.714z" stroke="#fff" stroke-width="2.38" mask="url(#c)"/></mask><g mask="url(#d)" transform="translate(-4 -4)"><path fill-rule="evenodd" clip-rule="evenodd" d="m18.305 29.86 7.913-7.034h-7.913zm14.168 2.01 9.57-9.044H34.13L23.956 31.87zm7.31 0 7.913-7.034v7.034z" fill="#ff5252"/></g></svg>
