<svg viewBox="0 0 58 66.667" fill="none" xmlns="http://www.w3.org/2000/svg"><path fill-rule="evenodd" clip-rule="evenodd" d="M37.434 56.755C49.337 53.142 58 42.082 58 29 58 12.984 45.016 0 29 0S0 12.984 0 29c0 13.083 8.663 24.142 20.566 27.755l6.834 9.112a2 2 0 0 0 3.2 0z" fill="#000"/><path fill-rule="evenodd" clip-rule="evenodd" d="M29 55c14.36 0 26-11.64 26-26S43.36 3 29 3 3 14.64 3 29s11.64 26 26 26z" fill="#ffc400"/><mask id="a" maskUnits="userSpaceOnUse" x="19.317" y="22.84" width="27" height="27" fill="#000"><path fill="#fff" d="M19.317 22.84h27v27h-27z"/><path fill-rule="evenodd" clip-rule="evenodd" d="M33 47.243c5.596 0 10.683-4.016 10.683-13.226S38.76 25.878 33 25.878c-5.102 0-10.683-1.07-10.683 8.14S27.404 47.242 33 47.242z"/></mask><path fill-rule="evenodd" clip-rule="evenodd" d="M29 43.243c5.596 0 10.683-4.016 10.683-13.226S34.76 21.878 29 21.878c-5.102 0-10.683-1.07-10.683 8.14S23.404 43.242 29 43.242z" fill="#fbc57a"/><path clip-rule="evenodd" d="M33 47.243c5.596 0 10.683-4.016 10.683-13.226S38.76 25.878 33 25.878c-5.102 0-10.683-1.07-10.683 8.14S27.404 47.242 33 47.242z" stroke="#8a3700" stroke-width="4.07" mask="url(#a)" transform="translate(-4 -4)"/><path fill-rule="evenodd" clip-rule="evenodd" d="M29 22.896a2.035 2.035 0 1 0 0-4.07 2.035 2.035 0 0 0 0 4.07z" fill="#f8f9fa"/><path fill-rule="evenodd" clip-rule="evenodd" d="M25.286 21.192v-3.579a2.34 2.34 0 0 1 1.6-2.22l.43-.143c.96-.32 2-.32 2.96 0l.43.143a2.34 2.34 0 0 1 1.6 2.22v3.579" fill="#fdec7b"/><path d="M25.286 21.192v-3.773c0-.891.57-1.682 1.415-1.964l.786-.262a4.14 4.14 0 0 1 2.618 0l.786.262a2.07 2.07 0 0 1 1.415 1.964v3.773" stroke="#202124" stroke-width="2.34" stroke-linecap="round"/><path fill-rule="evenodd" clip-rule="evenodd" d="M29 14.757c11.335 0 12.36 8.376 12.307 11.797-.014.904.28 1.807.919 2.446H15.773c.64-.64.933-1.542.92-2.446-.054-3.42.971-11.797 12.307-11.797z" fill="#fce354" stroke="#a84600" stroke-width="2.035" stroke-linejoin="round"/><path fill-rule="evenodd" clip-rule="evenodd" d="m33.068 23.913 2.544 8.775H22.894l2.035-8.775m0-4.578v-3.769c0-1.073.73-2.01 1.773-2.27l1.162-.29a4.68 4.68 0 0 1 2.27 0l1.162.29a2.34 2.34 0 0 1 1.772 2.27v3.769" fill="#fce354"/><path d="M34.046 23.63a1.017 1.017 0 1 0-1.955.566zm1.566 9.058v1.017h1.354l-.377-1.3zm-12.718 0-.99-.23-.29 1.248h1.28zm3.026-8.545a1.018 1.018 0 0 0-1.982-.46zm-2.008-4.808a1.017 1.017 0 0 0 2.034 0zm8.139 0a1.017 1.017 0 0 0 2.035 0zm-.755-6.039.246-.987zm-3.432-.29-.247-.987zm2.27 0-.247.987zm-3.432.29.246.987zm5.39 10.9 2.543 8.775 1.954-.566-2.543-8.775zm3.52 7.475H22.894v2.035h12.718zm-11.726 1.247 2.034-8.775-1.982-.46-2.035 8.775zm2.06-13.583v-3.769h-2.034v3.769zm1.002-5.052 1.162-.29-.493-1.974-1.162.29zm2.939-.29 1.162.29.493-1.974-1.162-.29zm2.164 1.573v3.769h2.035v-3.769zm-1.002-1.283a1.323 1.323 0 0 1 1.002 1.283h2.035a3.357 3.357 0 0 0-2.543-3.257zm-2.939-.29a3.663 3.663 0 0 1 1.777 0l.493-1.974a5.698 5.698 0 0 0-2.763 0zm-2.164 1.573c0-.607.413-1.136 1.002-1.283l-.493-1.974a3.357 3.357 0 0 0-2.543 3.257z" fill="#a84600"/><mask id="b" maskUnits="userSpaceOnUse" x="17.754" y="28.142" width="31" height="11" fill="#000"><path fill="#fff" d="M17.754 28.142h31v11h-31z"/><path fill-rule="evenodd" clip-rule="evenodd" d="M20.17 31.304a.387.387 0 0 1 .456-.256c1.362.318 6.593 1.443 12.374 1.443 5.78 0 11.012-1.125 12.374-1.443a.387.387 0 0 1 .456.256l.177.53a.782.782 0 0 1-.407.951c-.547.263-1.411.69-2.426 1.232C40.64 35.305 42.928 37.07 33 37.07c-9.929 0-7.503-1.602-10.174-3.053a61.285 61.285 0 0 0-2.427-1.232.782.782 0 0 1-.407-.95z"/></mask><path fill-rule="evenodd" clip-rule="evenodd" d="M16.17 27.304a.387.387 0 0 1 .456-.256c1.362.318 6.593 1.443 12.374 1.443 5.78 0 11.012-1.125 12.374-1.443a.387.387 0 0 1 .456.256l.177.53a.782.782 0 0 1-.407.951c-.547.263-1.411.69-2.426 1.232C36.64 31.305 38.928 33.07 29 33.07c-9.929 0-7.503-1.602-10.174-3.053a61.285 61.285 0 0 0-2.427-1.232.782.782 0 0 1-.407-.95z" fill="#fce354"/><path clip-rule="evenodd" d="M20.17 31.304a.387.387 0 0 1 .456-.256c1.362.318 6.593 1.443 12.374 1.443 5.78 0 11.012-1.125 12.374-1.443a.387.387 0 0 1 .456.256l.177.53a.782.782 0 0 1-.407.951c-.547.263-1.411.69-2.426 1.232C40.64 35.305 42.928 37.07 33 37.07c-9.929 0-7.503-1.602-10.174-3.053a61.285 61.285 0 0 0-2.427-1.232.782.782 0 0 1-.407-.95z" stroke="#a84600" stroke-width="4.07" mask="url(#b)" transform="translate(-4 -4)"/><path d="m25.947 38.157.471.549a3.4 3.4 0 0 0 5.163 0l.47-.55" stroke="#8a3700" stroke-width="2.035" stroke-linecap="round"/></svg>
