<svg viewBox="0 0 58 66.667" fill="none" xmlns="http://www.w3.org/2000/svg"><path fill-rule="evenodd" clip-rule="evenodd" d="M37.434 56.755C49.337 53.142 58 42.082 58 29 58 12.984 45.016 0 29 0S0 12.984 0 29c0 13.083 8.663 24.142 20.566 27.755l6.834 9.112a2 2 0 0 0 3.2 0z" fill="#000"/><path fill-rule="evenodd" clip-rule="evenodd" d="M29 55c14.36 0 26-11.64 26-26S43.36 3 29 3 3 14.64 3 29s11.64 26 26 26z" fill="#ffc400"/><mask id="a" mask-type="alpha" maskUnits="userSpaceOnUse" x="7" y="7" width="52" height="52"><path fill-rule="evenodd" clip-rule="evenodd" d="M33 59c14.36 0 26-11.64 26-26S47.36 7 33 7 7 18.64 7 33s11.64 26 26 26z" fill="#fff"/></mask><path d="M41.66 24.478H16.34c-1.748 0-3.165 1.492-3.165 3.331v10.294c0 1.84 1.417 3.332 3.165 3.332H41.661c1.748 0 3.165-1.492 3.165-3.332V27.81c0-1.84-1.417-3.33-3.165-3.33z" fill="#1ab3ff" stroke="#18427c" stroke-width="2.261"/><path d="m33.635 31.973 3.123 1.137-1.563 4.294a1.662 1.662 0 0 1-3.123-1.137zM18.8 26.573l3.123 1.137-1.563 4.294a1.662 1.662 0 0 1-3.123-1.136z" fill="#202124"/><path d="M37.222 14.924a23.383 23.383 0 0 0-7.089-2.58 5.845 5.845 0 0 0-5.976 2.539l-2.47 3.768c-.263.401-.643.706-1.047.966a4.964 4.964 0 0 0-1.982 2.484l-.426 1.171a4.986 4.986 0 0 0 2.98 6.39l11.712 4.263a4.986 4.986 0 0 0 6.39-2.98l.426-1.171a4.97 4.97 0 0 0-.189-3.86l.617-5.204a5.846 5.846 0 0 0-2.946-5.786z" fill="#fd804b" stroke="#75011d" stroke-width="2.261"/><rect x="28.417" y="13.14" width="4.155" height="4.155" rx="2.077" transform="rotate(20)" fill="#fff"/><rect x="40.049" y="13.14" width="4.155" height="4.155" rx="2.077" transform="rotate(20)" fill="#fff"/><path d="m26.032 16.631-1.037 1.598c-.59.91-.18 2.133.839 2.504l9.29 3.381a1.687 1.687 0 0 0 2.251-1.379l.233-1.89a2.854 2.854 0 0 0-1.487-2.867 26.76 26.76 0 0 0-7.107-2.587 2.854 2.854 0 0 0-2.982 1.24z" fill="#75011d"/><path fill-rule="evenodd" clip-rule="evenodd" d="M16.275 29.502h24.928v9.14h-26.59v-7.146c0-1.1.744-1.994 1.662-1.994z" fill="#1ab3ff"/><path d="M41.435 30.662c-.941 0-1.383-.622-2.065-1.662-.682 1.241-1.664 1.51-2.558 1.51-.962 0-2.157-.47-2.838-1.51-.68 1.04-1.546 1.51-2.487 1.51-.941 0-1.806-.47-2.487-1.51-.68 1.04-1.546 1.51-2.487 1.51-.94 0-1.806-.47-2.487-1.51-.68 1.04-1.545 1.51-2.487 1.51-.94 0-2.29-.47-2.971-1.51-.287.91-1.061 1.662-2.003 1.662M41.435 36.558c-.941 0-1.65-.622-2.332-1.662-.68 1.04-1.7 1.51-2.642 1.51-.941 0-1.806-.47-2.487-1.51-.68 1.04-1.546 1.51-2.487 1.51-.941 0-1.806-.47-2.487-1.51-.68 1.04-1.546 1.51-2.487 1.51-.94 0-1.806-.47-2.487-1.51-.68 1.04-1.545 1.51-2.487 1.51-.94 0-1.914-.47-2.596-1.51-.68 1.04-1.436 1.662-2.378 1.662" stroke="#18427c" stroke-width="2.216" stroke-linecap="round" stroke-linejoin="round"/></svg>
