<?xml version="1.0" encoding="utf-8"?>
<!-- Generator: Adobe Illustrator 27.7.0, SVG Export Plug-In . SVG Version: 6.00 Build 0)  -->
<svg version="1.1" id="Layer_1" xmlns="http://www.w3.org/2000/svg" xmlns:xlink="http://www.w3.org/1999/xlink" x="0px" y="0px"
	 viewBox="0 0 512 512" style="enable-background:new 0 0 512 512;" xml:space="preserve">
<g>
	<path d="M94.32,161.68c0.02,89.31,72.38,161.67,161.68,161.68c89.31-0.02,161.67-72.38,161.68-161.68
		C417.67,72.38,345.31,0.02,256,0C166.69,0.02,94.33,72.38,94.32,161.68c0,14.88,12.06,26.95,26.95,26.95
		c14.88,0,26.95-12.06,26.95-26.95c0.01-29.85,12.02-56.63,31.57-76.22c19.59-19.55,46.37-31.56,76.22-31.57
		c29.85,0.01,56.63,12.02,76.22,31.57c19.55,19.59,31.56,46.37,31.57,76.22c-0.01,29.85-12.02,56.63-31.57,76.22
		c-19.59,19.55-46.37,31.56-76.22,31.57c-29.85-0.01-56.63-12.02-76.22-31.57c-19.55-19.59-31.56-46.37-31.57-76.22
		c0-14.88-12.06-26.95-26.95-26.95C106.38,134.74,94.32,146.8,94.32,161.68L94.32,161.68z"/>
	<path d="M229.05,296.42v188.63c0,14.88,12.06,26.95,26.95,26.95c14.88,0,26.95-12.06,26.95-26.95V296.42
		c0-14.88-12.06-26.95-26.95-26.95C241.12,269.47,229.05,281.54,229.05,296.42"/>
	<path d="M121.26,431.16h269.47c14.88,0,26.95-12.06,26.95-26.95c0-14.88-12.06-26.95-26.95-26.95H121.26
		c-14.88,0-26.95,12.06-26.95,26.95C94.32,419.09,106.38,431.16,121.26,431.16"/>
</g>
</svg>
