<svg viewBox="0 0 58 66.667" fill="none" xmlns="http://www.w3.org/2000/svg"><path fill-rule="evenodd" clip-rule="evenodd" d="M37.434 56.755C49.337 53.142 58 42.082 58 29 58 12.984 45.016 0 29 0S0 12.984 0 29c0 13.083 8.663 24.142 20.566 27.755l6.834 9.112a2 2 0 0 0 3.2 0l6.834-9.113z" fill="#000"/><path fill-rule="evenodd" clip-rule="evenodd" d="M29 55c14.36 0 26-11.64 26-26S43.36 3 29 3 3 14.64 3 29s11.64 26 26 26z" fill="#ffc400"/><mask id="a" fill="#fff"><path fill-rule="evenodd" clip-rule="evenodd" d="M29.134 19.018c1.761-2.9 5.97-2.9 7.73 0l11.183 18.418c1.83 3.013-.34 6.868-3.865 6.868H21.817c-3.525 0-5.694-3.855-3.865-6.868z"/></mask><path fill-rule="evenodd" clip-rule="evenodd" d="M29.134 19.018c1.761-2.9 5.97-2.9 7.73 0l11.183 18.418c1.83 3.013-.34 6.868-3.865 6.868H21.817c-3.525 0-5.694-3.855-3.865-6.868z" fill="#fdd632" stroke="#a84600" stroke-width="4.522" mask="url(#a)" transform="translate(-4 -4)"/><path fill-rule="evenodd" clip-rule="evenodd" d="M29.51 22.217c.623 0 1.1.556 1.005 1.173l-.876 5.696a.565.565 0 0 1-.559.48h-.16a.565.565 0 0 1-.559-.48l-.876-5.696a1.017 1.017 0 0 1 1.005-1.173zm1.189 10.716v.04c.002.946-.718 1.677-1.692 1.68-.975 0-1.697-.727-1.7-1.673v-.04c-.002-.946.718-1.677 1.693-1.68.974-.001 1.697.727 1.699 1.673z" fill="#8a3700"/></svg>
