<?xml version='1.0' encoding='iso-8859-1'?>
<!-- Uploaded to: SVG Repo, www.svgrepo.com, Generator: SVG Repo Mixer Tools -->
<svg fill="#FFFFFF" height="800px" width="800px" version="1.1" xmlns="http://www.w3.org/2000/svg" viewBox="0 0 462.83 462.83" xmlns:xlink="http://www.w3.org/1999/xlink" enable-background="new 0 0 462.83 462.83">
  <path d="m452.99,200.458c-11.864-17.007-24.03-29.716-37.191-38.854-16.907-11.738-35.846-17.689-56.292-17.689-37.091,0-59.247,24.483-77.049,44.157-10.341,11.428-19.272,21.297-26.951,21.297-0.48,0-0.948,0.05-1.403,0.136-0.255-0.265-0.514-0.527-0.779-0.783 0.086-0.454 0.135-0.921 0.135-1.4 0-7.679 9.87-16.61 21.297-26.951 19.673-17.803 44.157-39.958 44.157-77.049 0-20.445-5.952-39.384-17.689-56.291-9.138-13.161-21.847-25.327-38.853-37.191-18.806-13.119-43.109-13.119-61.916,0-17.006,11.864-29.715,24.03-38.853,37.191-11.738,16.907-17.689,35.846-17.689,56.291 0,37.091 24.484,59.246 44.157,77.049 11.428,10.341 21.297,19.272 21.297,26.951 0,0.479 0.05,0.946 0.135,1.4-0.264,0.256-0.523,0.518-0.779,0.783-0.455-0.086-0.923-0.136-1.403-0.136-7.679,0-16.61-9.869-26.951-21.297-17.802-19.674-39.958-44.157-77.049-44.157-20.445,0-39.385,5.951-56.292,17.689-13.162,9.138-25.327,21.847-37.191,38.854-13.12,18.806-13.12,43.108 0,61.914 11.864,17.007 24.03,29.716 37.191,38.854 16.907,11.738 35.846,17.689 56.292,17.689 37.091,0 59.247-24.483 77.049-44.157 10.341-11.428 19.272-21.297 26.951-21.297 0.533,0 1.053-0.058 1.554-0.163 0.216,0.221 0.435,0.438 0.657,0.653-0.106,0.503-0.164,1.023-0.164,1.558 0,7.679-9.87,16.61-21.297,26.951-19.673,17.803-44.157,39.958-44.157,77.049 0,20.445 5.952,39.384 17.689,56.291 9.138,13.161 21.847,25.327 38.853,37.191 9.404,6.561 20.179,9.841 30.958,9.84 10.776-0.001 21.556-3.281 30.958-9.84 17.006-11.864 29.715-24.03 38.853-37.191 11.738-16.907 17.689-35.846 17.689-56.291 0-37.091-24.484-59.246-44.157-77.049-11.428-10.341-21.297-19.272-21.297-26.951 0-0.534-0.058-1.055-0.164-1.558 0.222-0.215 0.441-0.432 0.657-0.653 0.502,0.106 1.021,0.163 1.554,0.163 7.679,0 16.61,9.869 26.951,21.297 17.802,19.674 39.958,44.157 77.049,44.157 20.445,0 39.385-5.951 56.292-17.689 13.162-9.138 25.327-21.847 37.191-38.854 13.12-18.806 13.12-43.109-1.13687e-13-61.914zm-221.575,94.364c4.687,0 8.5,3.813 8.5,8.5s-3.813,8.5-8.5,8.5-8.5-3.813-8.5-8.5 3.813-8.5 8.5-8.5zm0-127c-4.687,0-8.5-3.813-8.5-8.5s3.813-8.5 8.5-8.5 8.5,3.813 8.5,8.5-3.813,8.5-8.5,8.5zm0,80c-9.098,0-16.5-7.402-16.5-16.5s7.402-16.5 16.5-16.5 16.5,7.402 16.5,16.5-7.402,16.5-16.5,16.5zm-33.278-78.573c-18.384-16.636-39.222-35.492-39.222-65.927 0-31.527 15.927-57.323 50.125-81.18 13.592-9.484 31.158-9.484 44.75,0 34.197,23.856 50.125,49.652 50.125,81.18 0,30.435-20.837,49.291-39.222,65.927-11.876,10.746-22.386,20.257-25.381,31.576-0.131-0.034-0.265-0.061-0.397-0.094v-19.144c9.29-3.138 16-11.93 16-22.266 0-12.958-10.542-23.5-23.5-23.5s-23.5,10.542-23.5,23.5c0,10.336 6.71,19.128 16,22.266v19.144c-0.132,0.032-0.266,0.06-0.397,0.094-2.996-11.32-13.505-20.83-25.381-31.576zm-28.888,95.444c-16.636,18.385-35.492,39.222-65.927,39.222-31.528,0-57.324-15.928-81.181-50.125-9.482-13.593-9.482-31.157 0-44.75 23.857-34.197 49.653-50.125 81.181-50.125 30.435,0 49.291,20.837 65.927,39.222 10.767,11.899 20.294,22.424 31.642,25.396-0.024,0.096-0.043,0.193-0.067,0.289h-19.144c-3.138-9.29-11.93-16-22.266-16-12.958,0-23.5,10.542-23.5,23.5s10.542,23.5 23.5,23.5c10.336,0 19.128-6.71 22.266-16h19.144c0.038,0.155 0.073,0.31 0.113,0.464-11.368,2.956-20.906,13.492-31.688,25.407zm-1.334-33.371c0,4.687-3.813,8.5-8.5,8.5s-8.5-3.813-8.5-8.5 3.813-8.5 8.5-8.5 8.5,3.813 8.5,8.5zm96.778,62.259c18.384,16.636 39.222,35.492 39.222,65.927 0,31.527-15.927,57.323-50.125,81.18-13.592,9.484-31.158,9.484-44.75,0-34.197-23.856-50.125-49.652-50.125-81.18 0-30.435 20.837-49.291 39.222-65.927 11.937-10.801 22.489-20.355 25.423-31.75 0.117,0.03 0.238,0.053 0.356,0.082v19.144c-9.29,3.138-16,11.93-16,22.266 0,12.958 10.542,23.5 23.5,23.5s23.5-10.542 23.5-23.5c0-10.336-6.71-19.128-16-22.266v-19.144c0.118-0.029 0.238-0.052 0.356-0.082 2.932,11.395 13.485,20.948 25.421,31.75zm175.995-39.791c-23.857,34.197-49.653,50.125-81.181,50.125-30.435,0-49.291-20.837-65.927-39.222-10.781-11.915-20.319-22.451-31.688-25.407 0.04-0.154 0.075-0.309 0.113-0.464h19.144c3.138,9.29 11.93,16 22.266,16 12.958,0 23.5-10.542 23.5-23.5s-10.542-23.5-23.5-23.5c-10.336,0-19.128,6.71-22.266,16h-19.144c-0.024-0.096-0.043-0.194-0.067-0.289 11.348-2.972 20.875-13.497 31.642-25.396 16.636-18.385 35.492-39.222 65.927-39.222 31.528,0 57.324,15.928 81.181,50.125 9.482,13.592 9.482,31.157 0,44.75zm-145.773-22.468c0-4.687 3.813-8.5 8.5-8.5s8.5,3.813 8.5,8.5-3.813,8.5-8.5,8.5-8.5-3.814-8.5-8.5z"/>
</svg>