<svg viewBox="0 0 58 66.667" fill="none" xmlns="http://www.w3.org/2000/svg"><path fill-rule="evenodd" clip-rule="evenodd" d="M37.434 56.755C49.337 53.142 58 42.082 58 29 58 12.984 45.016 0 29 0S0 12.984 0 29c0 13.083 8.663 24.142 20.566 27.755l6.834 9.112a2 2 0 0 0 3.2 0l6.834-9.113z" fill="#000"/><path fill-rule="evenodd" clip-rule="evenodd" d="M29 55c14.36 0 26-11.64 26-26S43.36 3 29 3 3 14.64 3 29s11.64 26 26 26z" fill="#fd804b"/><path d="M25.374 27.779h3.86v3.316a1.93 1.93 0 0 1-3.86 0z" fill="#202124"/><path d="M40.81 27.779h3.86v3.316a1.93 1.93 0 0 1-3.86 0z" fill="#75011d"/><path fill-rule="evenodd" clip-rule="evenodd" d="M30.162 13.29c-1.432.356-2.432 1.549-2.805 2.977l-1.258 4.808c-1.318.878-1.804 2.515-1.494 4.093l.102.521a4.212 4.212 0 0 0 4.133 3.401h12.364a4.212 4.212 0 0 0 4.133-3.4l.102-.522c.31-1.578-.176-3.216-1.494-4.094l-1.258-4.807c-.373-1.428-1.373-2.621-2.806-2.978a20.249 20.249 0 0 0-4.86-.59c-1.962 0-3.634.286-4.859.59z" fill="#ffa600"/><path d="m27.357 16.267-.82-.215zm2.805-2.978.205.823zM26.1 21.075l.47.705.268-.179.082-.312zm-1.494 4.093.832-.164zm.102.521-.832.163zm20.63 0-.832-.163zm.102-.521.832.163zm-1.494-4.094-.82.215.081.312.269.179zm-1.258-4.807.82-.215zm-2.806-2.978-.204.823zm-11.704 3.192c.313-1.196 1.122-2.103 2.19-2.369l-.41-1.645c-1.796.447-2.987 1.926-3.42 3.585l1.64.43zm-1.258 4.808 1.258-4.808-1.64-.429-1.258 4.808 1.64.43zm-1.482 3.715c-.26-1.328.166-2.58 1.132-3.224l-.94-1.411c-1.67 1.112-2.215 3.135-1.856 4.962zm.102.522-.102-.522-1.664.327.102.521zm3.301 2.716a3.364 3.364 0 0 1-3.3-2.716l-1.665.326a5.06 5.06 0 0 0 4.965 4.086zm12.364 0H28.84v1.696h12.364v-1.696zm3.301-2.716a3.364 3.364 0 0 1-3.301 2.716v1.696a5.06 5.06 0 0 0 4.965-4.086zm.102-.522-.102.522 1.664.326.102-.521zm-1.132-3.224c.966.643 1.393 1.896 1.132 3.224l1.664.327c.359-1.828-.186-3.85-1.857-4.963l-.94 1.412zm-1.608-5.299 1.257 4.808 1.64-.43-1.257-4.807-1.64.43zm-2.19-2.369c1.068.266 1.877 1.173 2.19 2.37l1.64-.43c-.434-1.659-1.624-3.139-3.421-3.585l-.41 1.645zm-4.655-.565c1.881 0 3.483.274 4.655.565l.409-1.645a21.094 21.094 0 0 0-5.064-.616zm-4.655.565a19.399 19.399 0 0 1 4.655-.565V11.85c-2.044 0-3.786.298-5.064.616l.409 1.645z" fill="#75011d"/><path fill-rule="evenodd" clip-rule="evenodd" d="M30.051 17.407c.292-.893 1.011-1.586 1.935-1.761.855-.163 1.972-.324 3.035-.324 1.063 0 2.18.161 3.035.324.924.175 1.643.868 1.935 1.761l.54 1.652a.65.65 0 0 1-.618.852H30.13a.65.65 0 0 1-.618-.852l.54-1.652z" fill="#75011d"/><path fill-rule="evenodd" clip-rule="evenodd" d="M40.167 26.468c1.066 0 1.93-.881 1.93-1.967 0-1.087-.864-1.967-1.93-1.967-1.066 0-1.93.88-1.93 1.967 0 1.086.864 1.967 1.93 1.967zm-10.291 0c1.066 0 1.93-.881 1.93-1.967 0-1.087-.864-1.967-1.93-1.967-1.066 0-1.93.88-1.93 1.967 0 1.086.864 1.967 1.93 1.967z" fill="#fff"/><path d="M18.786 33.024h3.86v3.316a1.93 1.93 0 1 1-3.86 0z" fill="#202124"/><path d="M34.223 33.024h3.859v3.316a1.93 1.93 0 1 1-3.86 0v-3.316z" fill="#75011d"/><path fill-rule="evenodd" clip-rule="evenodd" d="M23.574 18.535c-1.432.356-2.432 1.55-2.805 2.977L19.51 26.32c-1.318.878-1.804 2.515-1.494 4.093l.102.522a4.212 4.212 0 0 0 4.133 3.4h12.364a4.212 4.212 0 0 0 4.133-3.4l.102-.522c.31-1.578-.176-3.216-1.494-4.094l-1.258-4.807c-.373-1.428-1.373-2.621-2.805-2.977a20.249 20.249 0 0 0-4.86-.59c-1.963 0-3.635.285-4.86.59z" fill="#e66a22"/><path d="m20.769 21.512.82.215zm2.805-2.977-.204-.823zm-4.063 7.785.47.705.268-.178.082-.313zm-1.494 4.093.832-.163zm.102.522-.832.163zm20.63 0-.832-.164.832.163zm.102-.522.832.163-.831-.163zm-1.494-4.094-.82.215.081.312.269.18zm-1.258-4.807.82-.214zm-2.805-2.977-.205.822zm-11.705 3.192c.313-1.197 1.122-2.104 2.19-2.37l-.41-1.645c-1.796.447-2.986 1.926-3.42 3.586zm-1.258 4.807 1.258-4.807-1.64-.43-1.258 4.808 1.64.43zM18.85 30.25c-.26-1.328.166-2.581 1.132-3.225l-.94-1.41c-1.67 1.112-2.215 3.134-1.856 4.961zm.102.521-.102-.521-1.664.326.102.522zm3.301 2.717a3.364 3.364 0 0 1-3.3-2.717l-1.665.327a5.06 5.06 0 0 0 4.965 4.085zm12.364 0H22.252v1.695h12.364v-1.695zm3.301-2.717a3.364 3.364 0 0 1-3.301 2.717v1.695a5.06 5.06 0 0 0 4.965-4.085zm.102-.521-.102.521 1.664.327.102-.522-1.663-.326zm-1.132-3.225c.966.644 1.393 1.896 1.133 3.225l1.663.326c.359-1.827-.186-3.85-1.856-4.962zm-1.608-5.298 1.257 4.807 1.64-.43-1.257-4.806zm-2.19-2.37c1.068.266 1.877 1.173 2.19 2.37l1.64-.43c-.434-1.659-1.624-3.138-3.42-3.585zm-4.655-.565c1.881 0 3.484.274 4.655.565l.41-1.645a21.099 21.099 0 0 0-5.065-.616zm-4.655.565a19.404 19.404 0 0 1 4.655-.565v-1.696a21.1 21.1 0 0 0-5.064.616z" fill="#75011d"/><path fill-rule="evenodd" clip-rule="evenodd" d="M23.463 22.653c.292-.894 1.012-1.586 1.935-1.762.855-.163 1.972-.324 3.035-.324 1.063 0 2.18.161 3.035.324.924.176 1.643.868 1.935 1.762l.54 1.651a.65.65 0 0 1-.618.852h-9.784a.65.65 0 0 1-.618-.852z" fill="#75011d"/><path fill-rule="evenodd" clip-rule="evenodd" d="M33.579 31.713c1.066 0 1.93-.88 1.93-1.967 0-1.086-.864-1.967-1.93-1.967-1.066 0-1.93.88-1.93 1.967 0 1.086.864 1.967 1.93 1.967zm-10.291 0c1.066 0 1.93-.88 1.93-1.967 0-1.086-.864-1.967-1.93-1.967-1.066 0-1.93.88-1.93 1.967 0 1.086.864 1.967 1.93 1.967z" fill="#fff"/><path d="M12.2 38.27h3.858v3.315a1.93 1.93 0 0 1-3.859 0V38.27zm15.436 0h3.859v3.315a1.93 1.93 0 0 1-3.86 0V38.27z" fill="#75011d"/><path fill-rule="evenodd" clip-rule="evenodd" d="M16.987 23.78c-1.432.356-2.432 1.55-2.805 2.977l-1.258 4.808c-1.318.878-1.804 2.516-1.494 4.093l.102.522a4.212 4.212 0 0 0 4.134 3.4h12.363a4.212 4.212 0 0 0 4.133-3.4l.102-.522c.31-1.578-.176-3.216-1.494-4.093l-1.258-4.808c-.373-1.428-1.373-2.62-2.805-2.977a20.249 20.249 0 0 0-4.86-.59c-1.963 0-3.635.285-4.86.59z" fill="#e42828"/><path d="m14.182 26.757-.82-.214zm2.805-2.977.205.823zm-4.063 7.785.47.706.269-.18.081-.311zm-1.494 4.093-.832.163zm.102.522.832-.163zm20.63 0-.832-.163zm.102-.522.832.163-.831-.163zm-1.494-4.093-.82.214.081.313.269.178zm-1.258-4.808-.82.215zm-2.805-2.977.204-.823zm-11.705 3.192c.313-1.197 1.122-2.104 2.19-2.37l-.41-1.645c-1.796.447-2.986 1.926-3.42 3.586zm-1.258 4.808 1.258-4.808-1.64-.43-1.258 4.808zm-1.482 3.715c-.26-1.328.166-2.58 1.132-3.224l-.94-1.412c-1.67 1.113-2.215 3.135-1.856 4.962zm.102.522-.102-.522-1.664.326.102.522 1.664-.327zm3.302 2.716a3.364 3.364 0 0 1-3.302-2.716l-1.664.326a5.06 5.06 0 0 0 4.966 4.086zm12.363 0H15.665v1.696H28.03v-1.696zm3.301-2.716a3.364 3.364 0 0 1-3.301 2.716v1.696a5.06 5.06 0 0 0 4.965-4.086l-1.664-.327zm.103-.522-.103.522 1.664.326.102-.522zM30.3 32.27c.966.644 1.393 1.896 1.133 3.225l1.663.326c.359-1.827-.185-3.85-1.856-4.962zm-1.608-5.298 1.258 4.807 1.64-.429-1.258-4.807zm-2.19-2.37c1.068.266 1.877 1.173 2.19 2.37l1.64-.43c-.434-1.659-1.624-3.138-3.42-3.585l-.41 1.646zm-4.655-.565c1.881 0 3.484.274 4.655.566l.41-1.646a21.1 21.1 0 0 0-5.065-.615zm-4.655.566a19.398 19.398 0 0 1 4.655-.566v-1.695a21.1 21.1 0 0 0-5.064.615z" fill="#75011d"/><path fill-rule="evenodd" clip-rule="evenodd" d="M16.876 27.898c.292-.893 1.012-1.586 1.935-1.762.855-.162 1.972-.324 3.035-.324 1.063 0 2.18.162 3.035.324.924.176 1.643.869 1.935 1.762l.54 1.652a.65.65 0 0 1-.618.852h-9.784a.65.65 0 0 1-.618-.852z" fill="#75011d"/><path fill-rule="evenodd" clip-rule="evenodd" d="M26.992 36.958c1.066 0 1.93-.88 1.93-1.967 0-1.086-.864-1.967-1.93-1.967-1.066 0-1.93.88-1.93 1.967 0 1.087.864 1.967 1.93 1.967zm-10.291 0c1.066 0 1.93-.88 1.93-1.967 0-1.086-.864-1.967-1.93-1.967-1.066 0-1.93.88-1.93 1.967 0 1.087.864 1.967 1.93 1.967z" fill="#fff"/></svg>
