<svg viewBox="0 0 58 66.667" fill="none" xmlns="http://www.w3.org/2000/svg"><path fill-rule="evenodd" clip-rule="evenodd" d="M37.434 56.755C49.337 53.142 58 42.082 58 29 58 12.984 45.016 0 29 0S0 12.984 0 29c0 13.083 8.663 24.142 20.566 27.755l6.834 9.112a2 2 0 0 0 3.2 0z" fill="#000"/><path fill-rule="evenodd" clip-rule="evenodd" d="M29 55c14.36 0 26-11.64 26-26S43.36 3 29 3 3 14.64 3 29s11.64 26 26 26z" fill="#ffc400"/><mask id="a" fill="#fff"><path fill-rule="evenodd" clip-rule="evenodd" d="M29.134 19.018c1.761-2.9 5.97-2.9 7.73 0l11.183 18.418c1.83 3.013-.34 6.868-3.865 6.868H21.817c-3.525 0-5.694-3.855-3.865-6.868z"/></mask><path fill-rule="evenodd" clip-rule="evenodd" d="M29.134 19.018c1.761-2.9 5.97-2.9 7.73 0l11.183 18.418c1.83 3.013-.34 6.868-3.865 6.868H21.817c-3.525 0-5.694-3.855-3.865-6.868z" fill="#fdd632" stroke="#a84600" stroke-width="4.522" mask="url(#a)" transform="translate(-4 -4)"/><path d="M28.616 22.72c.791 0 1.453.152 1.984.457.542.294.95.684 1.22 1.17.283.475.425.978.425 1.509 0 .463-.08.882-.238 1.255-.158.362-.356.7-.593 1.017a19.41 19.41 0 0 1-.712.865 6.482 6.482 0 0 0-.594.78 1.405 1.405 0 0 0-.237.763v.119c0 .113-.034.198-.102.254a.36.36 0 0 1-.237.085h-1.493a.325.325 0 0 1-.237-.102.345.345 0 0 1-.102-.254v-.373c0-.43.108-.82.322-1.17.226-.362.486-.707.78-1.035a8.27 8.27 0 0 0 .763-.983c.227-.328.34-.673.34-1.034 0-.35-.13-.65-.39-.9-.25-.26-.605-.39-1.069-.39-.35 0-.672.097-.966.29a2.936 2.936 0 0 0-.78.762.456.456 0 0 1-.34.204.569.569 0 0 1-.39-.119l-.78-.543a.922.922 0 0 1-.237-.288c-.068-.136-.022-.328.136-.576.283-.441.718-.843 1.306-1.204.587-.373 1.328-.56 2.22-.56zm.186 12.343c-.418 0-.774-.147-1.068-.44a1.435 1.435 0 0 1-.44-1.052c0-.418.146-.774.44-1.068.294-.294.65-.44 1.068-.44.407 0 .758.146 1.052.44.294.294.44.65.44 1.068 0 .407-.146.758-.44 1.052-.294.294-.645.44-1.052.44z" fill="#8a3700"/></svg>
