<svg viewBox="0 0 58 66.667" fill="none" xmlns="http://www.w3.org/2000/svg"><path fill-rule="evenodd" clip-rule="evenodd" d="M37.434 56.755C49.337 53.142 58 42.082 58 29 58 12.984 45.016 0 29 0S0 12.984 0 29c0 13.083 8.663 24.142 20.566 27.755l6.834 9.112a2 2 0 0 0 3.2 0z" fill="#000"/><path fill-rule="evenodd" clip-rule="evenodd" d="M29 55c14.36 0 26-11.64 26-26S43.36 3 29 3 3 14.64 3 29s11.64 26 26 26z" fill="#ffc400"/><mask id="a" mask-type="alpha" maskUnits="userSpaceOnUse" x="7" y="7" width="52" height="52"><path fill-rule="evenodd" clip-rule="evenodd" d="M33 59c14.36 0 26-11.64 26-26S47.36 7 33 7 7 18.64 7 33s11.64 26 26 26z" fill="#fff"/></mask><g mask="url(#a)" transform="translate(-4 -4)"><mask id="b" maskUnits="userSpaceOnUse" x="19.826" y="16.435" width="22" height="32" fill="#000"><path fill="#fff" d="M19.826 16.435h22v32h-22z"/><path fill-rule="evenodd" clip-rule="evenodd" d="M25.087 45.435a2.26 2.26 0 0 1-2.26-2.261v-21.43a2.26 2.26 0 0 1 2.252-2.26l11.29-.04a2.26 2.26 0 0 1 2.269 2.259l.013 21.47a2.26 2.26 0 0 1-2.26 2.262z"/></mask><path fill-rule="evenodd" clip-rule="evenodd" d="M25.087 45.435a2.26 2.26 0 0 1-2.26-2.261v-21.43a2.26 2.26 0 0 1 2.252-2.26l11.29-.04a2.26 2.26 0 0 1 2.269 2.259l.013 21.47a2.26 2.26 0 0 1-2.26 2.262z" fill="#90959c"/><path clip-rule="evenodd" d="M25.087 45.435a2.26 2.26 0 0 1-2.26-2.261v-21.43a2.26 2.26 0 0 1 2.252-2.26l11.29-.04a2.26 2.26 0 0 1 2.269 2.259l.013 21.47a2.26 2.26 0 0 1-2.26 2.262z" stroke="#55595e" stroke-width="4.522" mask="url(#b)"/><path fill-rule="evenodd" clip-rule="evenodd" d="M30.739 40.348c.624 0 1.13.506 1.13 1.13v3.957h-2.26v-3.957c0-.624.506-1.13 1.13-1.13zM30.739 25.565a1.13 1.13 0 0 1-1.13-1.13v-5h2.26v5a1.13 1.13 0 0 1-1.13 1.13z" fill="#fff"/><path d="m47.144 27.103-1.008-1.008a1.426 1.426 0 0 0-2.016 0l-4.033 4.033a1.426 1.426 0 0 0 0 2.016l1.008 1.008c.557.557 1.46.557 2.017 0l4.032-4.032a1.426 1.426 0 0 0 0-2.017z" fill="#c25700" stroke="#8a3700" stroke-width="2.261"/><path d="M43.154 29.609h-9.218c-3.133 0-5.672 2.53-5.672 5.652 0 3.121 2.54 5.652 5.672 5.652h9.218c3.133 0 5.672-2.53 5.672-5.652 0-3.122-2.54-5.652-5.672-5.652z" fill="#c25700" stroke="#8a3700" stroke-width="2.285"/><path d="M46.136 29.12a1.426 1.426 0 1 0-2.016-2.017l-3.529 3.529a1.426 1.426 0 1 0 2.016 2.016z" fill="#c25700"/><path d="M33.927 39.783a4.522 4.522 0 1 0 0-9.044 4.522 4.522 0 0 0 0 9.044z" fill="#fc9"/><path d="M33.927 37.522a2.261 2.261 0 1 0 0-4.522 2.261 2.261 0 0 0 0 4.522z" fill="#c25700"/><path fill-rule="evenodd" clip-rule="evenodd" d="m46.129 29.12 1.599 1.598-2.665 2.665c-.294.294-.89.175-1.332-.267-.442-.441-.56-1.038-.267-1.332z" fill="#8a3700"/></g></svg>
