<?xml version="1.0" encoding="utf-8"?>
<!-- Generator: Adobe Illustrator 27.5.0, SVG Export Plug-In . SVG Version: 6.00 Build 0)  -->
<svg version="1.1" id="Layer_1" xmlns="http://www.w3.org/2000/svg" xmlns:xlink="http://www.w3.org/1999/xlink" x="0px" y="0px"
	 viewBox="0 0 512 512" style="enable-background:new 0 0 512 512;" xml:space="preserve">
<g>
	<path d="M160,256c35.35,0,64-28.65,64-64s-28.65-64-64-64s-64,28.65-64,64S124.65,256,160,256z M288,176c0-8.84,7.16-16,16-16h128
		c8.84,0,16,7.16,16,16s-7.16,16-16,16H304C295.16,192,288,184.84,288,176z M288,256c0-8.84,7.16-16,16-16h128c8.84,0,16,7.16,16,16
		s-7.16,16-16,16H304C295.16,272,288,264.84,288,256z M320,336c0-8.84,7.16-16,16-16h96c8.84,0,16,7.16,16,16s-7.16,16-16,16h-96
		C327.16,352,320,344.84,320,336z"/>
	<path d="M64,64C28.65,64,0,92.65,0,128v256c0,35.35,28.65,64,64,64h384c35.35,0,64-28.65,64-64V128c0-35.35-28.65-64-64-64H64z
		 M32,128c0-17.67,14.33-32,32-32h384c17.67,0,32,14.33,32,32v256c0,17.67-14.33,32-32,32H286.72c0.83-5.22,1.28-10.56,1.28-16
		c0-61.86-57.28-112-128-112c-66.75,0-121.6,44.74-127.49,101.79L32,384V128z"/>
</g>
</svg>
