<?xml version="1.0" encoding="utf-8"?>
<!-- Generator: Adobe Illustrator 27.5.0, SVG Export Plug-In . SVG Version: 6.00 Build 0)  -->
<svg version="1.1" id="Layer_1" xmlns="http://www.w3.org/2000/svg" xmlns:xlink="http://www.w3.org/1999/xlink" x="0px" y="0px"
	 viewBox="0 0 512 512" style="enable-background:new 0 0 512 512;" xml:space="preserve">
<g>
	<path d="M385,257c70.69,0,128,57.31,128,128s-57.31,128-128,128s-128-57.31-128-128S314.31,257,385,257z M397.95,471.09
		l54.86-54.86c7.15-7.15,7.15-18.74,0-25.89c-7.15-7.15-18.74-7.15-25.89,0L403.29,414V311.86c0-10.1-8.19-18.29-18.29-18.29
		s-18.29,8.19-18.29,18.29V414l-23.63-23.66c-7.15-7.15-18.74-7.15-25.89,0c-7.15,7.15-7.15,18.74,0,25.89l54.86,54.86
		c7.13,7.15,18.71,7.16,25.86,0.03L397.95,471.09z M330.14,110.71c0,60.59-49.12,109.71-109.71,109.71s-109.71-49.12-109.71-109.71
		S159.84,1,220.43,1S330.14,50.12,330.14,110.71z M220.43,183.86c40.4,0,73.14-32.75,73.14-73.14s-32.75-73.14-73.14-73.14
		s-73.14,32.75-73.14,73.14S180.03,183.86,220.43,183.86z"/>
	<path d="M229.79,439.86c-4.2-11.88-7.01-24.2-8.37-36.72H37.57c0.04-9,5.63-36.06,30.43-60.85
		c23.84-23.84,68.72-48.71,152.43-48.71c9.51,0,18.54,0.33,27.06,0.91c8.27-12.47,18.14-23.77,29.4-33.57
		c-17.08-2.52-35.84-3.91-56.47-3.91C37.57,257,1,366.71,1,403.29s36.57,36.57,36.57,36.57H229.79z"/>
</g>
</svg>
