<?xml version="1.0" encoding="utf-8"?>
<!-- Generator: Adobe Illustrator 27.2.0, SVG Export Plug-In . SVG Version: 6.00 Build 0)  -->
<svg version="1.1" id="Layer_1" xmlns="http://www.w3.org/2000/svg" xmlns:xlink="http://www.w3.org/1999/xlink" x="0px" y="0px"
	 viewBox="0 0 512 512" style="enable-background:new 0 0 512 512;" xml:space="preserve">
<style type="text/css">
	.st0{fill:#212121;}
</style>
<g>
	<path class="st0" d="M95.09,0C42.57,0,0,42.57,0,95.09v248.69c0,52.51,42.57,95.09,95.09,95.09h248.69
		c52.51,0,95.09-42.57,95.09-95.09V95.09C438.86,42.57,396.28,0,343.77,0H95.09z M285.26,131.66c0,36.36-29.47,65.83-65.83,65.83
		c-36.36,0-65.83-29.47-65.83-65.83s29.47-65.83,65.83-65.83C255.78,65.83,285.26,95.3,285.26,131.66z M307.2,226.74
		c24.24,0,43.89,19.65,43.89,43.89v14.63c0,14.5-2.53,25.16-7.43,33.96c-4.92,8.84-12.59,16.44-23.94,24.25
		c-21.43,14.73-54.35,22.26-100.28,22.26c-38.63,0-71.54-7.52-94.8-22.26c-12.24-7.75-21.34-15.32-27.44-24.27
		c-5.99-8.79-9.42-19.42-9.42-33.93v-14.63c0-24.24,19.65-43.89,43.89-43.89H307.2z M88.09,468.11
		c16.9,26.39,46.47,43.89,80.14,43.89H358.4c84.83,0,153.6-68.77,153.6-153.6V168.23c0-33.66-17.49-63.24-43.89-80.14V358.4
		c0,60.59-49.12,109.71-109.71,109.71H88.09z"/>
</g>
</svg>
