<svg viewBox="0 0 58 66.667" fill="none" xmlns="http://www.w3.org/2000/svg"><path fill-rule="evenodd" clip-rule="evenodd" d="M37.434 56.755C49.337 53.142 58 42.082 58 29 58 12.984 45.016 0 29 0S0 12.984 0 29c0 13.083 8.663 24.142 20.566 27.755l6.834 9.112a2 2 0 0 0 3.2 0z" fill="#000"/><path fill-rule="evenodd" clip-rule="evenodd" d="M29 55c14.36 0 26-11.64 26-26S43.36 3 29 3 3 14.64 3 29s11.64 26 26 26z" fill="#ffc400"/><mask id="a" mask-type="alpha" maskUnits="userSpaceOnUse" x="19" y="36" width="27" height="12"><path d="M33 46.565c6.555 0 11.869-2.024 11.869-4.522 0-2.497-5.314-4.521-11.87-4.521-6.555 0-11.87 2.024-11.87 4.521 0 2.498 5.315 4.522 11.87 4.522z" fill="#72767d" stroke="#000" stroke-width="2.261"/></mask><g mask="url(#a)" transform="translate(-4 -4)" stroke-width="2.261"><path d="M33 48.826c6.555 0 11.869-2.025 11.869-4.522 0-2.497-5.314-4.522-11.87-4.522-6.555 0-11.87 2.025-11.87 4.522 0 2.497 5.315 4.522 11.87 4.522z" fill="#3c4043" stroke="#90959c"/><path d="M33 46.565c6.555 0 11.869-2.024 11.869-4.522 0-2.497-5.314-4.521-11.87-4.521-6.555 0-11.87 2.024-11.87 4.521 0 2.498 5.315 4.522 11.87 4.522z" stroke="#caf8ff"/></g><path d="M29 42.565c6.555 0 11.869-2.024 11.869-4.522 0-2.497-5.314-4.521-11.87-4.521-6.555 0-11.87 2.024-11.87 4.521 0 2.498 5.315 4.522 11.87 4.522z" stroke="#3c4043" stroke-width="2.261"/><path d="M28.999 25.3V39.7" stroke="#8a3700" stroke-width="3.391" stroke-linecap="round"/><mask id="b" maskUnits="userSpaceOnUse" x="21.787" y="14.174" width="23" height="20" fill="#000"><path fill="#fff" d="M21.787 14.174h23v20h-23z"/><path fill-rule="evenodd" clip-rule="evenodd" d="M34.26 17.423a2.11 2.11 0 0 0-1.536-.179 2.005 2.005 0 0 0-1.22.906l-6.455 10.851a1.848 1.848 0 0 0 .33 2.305c.367.348.872.563 1.431.563h12.91c.35 0 .692-.085.996-.248.486-.261.815-.685.954-1.16a1.832 1.832 0 0 0-.189-1.46l-6.455-10.85a1.976 1.976 0 0 0-.765-.728z"/></mask><path fill-rule="evenodd" clip-rule="evenodd" d="M30.26 13.423a2.11 2.11 0 0 0-1.536-.179 2.005 2.005 0 0 0-1.22.907L21.049 25a1.848 1.848 0 0 0 .33 2.305c.367.348.872.563 1.431.563h12.91c.35 0 .692-.085.996-.248.486-.261.815-.685.954-1.16a1.832 1.832 0 0 0-.189-1.46l-6.455-10.85a1.976 1.976 0 0 0-.765-.728z" fill="#fdd632"/><path clip-rule="evenodd" d="M34.26 17.423a2.11 2.11 0 0 0-1.536-.179 2.005 2.005 0 0 0-1.22.906l-6.455 10.851a1.848 1.848 0 0 0 .33 2.305c.367.348.872.563 1.431.563h12.91c.35 0 .692-.085.996-.248.486-.261.815-.685.954-1.16a1.832 1.832 0 0 0-.189-1.46l-6.455-10.85a1.976 1.976 0 0 0-.765-.728z" stroke="#8a3700" stroke-width="4.522" mask="url(#b)" transform="translate(-4 -4)"/><path fill-rule="evenodd" clip-rule="evenodd" d="M27.966 17.796c-.107-.77.452-1.393 1.261-1.393.804 0 1.368.627 1.261 1.393l-.442 3.155c-.05.358-.385.647-.768.647h-.102c-.374 0-.718-.294-.767-.647z" fill="#8a3700"/><path d="M29.269 25.495c.74 0 1.34-.582 1.34-1.299s-.6-1.299-1.34-1.299c-.741 0-1.341.582-1.341 1.299s.6 1.299 1.34 1.299z" fill="#8a3700"/></svg>
