<svg viewBox="0 0 58 66.667" fill="none" xmlns="http://www.w3.org/2000/svg"><path fill-rule="evenodd" clip-rule="evenodd" d="M37.434 56.755C49.337 53.142 58 42.082 58 29 58 12.984 45.016 0 29 0S0 12.984 0 29c0 13.083 8.663 24.142 20.566 27.755l6.834 9.112a2 2 0 0 0 3.2 0z" fill="#000"/><path fill-rule="evenodd" clip-rule="evenodd" d="M29 55c14.36 0 26-11.64 26-26S43.36 3 29 3 3 14.64 3 29s11.64 26 26 26z" fill="#ffc400"/><mask id="a" mask-type="alpha" maskUnits="userSpaceOnUse" x="7" y="7" width="52" height="52"><path fill-rule="evenodd" clip-rule="evenodd" d="M33 59c14.36 0 26-11.64 26-26S47.36 7 33 7 7 18.64 7 33s11.64 26 26 26z" fill="#fff"/></mask><g mask="url(#a)" transform="translate(-4 -4)"><mask id="b" maskUnits="userSpaceOnUse" x="22.087" y="16.435" width="22" height="32" fill="#000"><path fill="#fff" d="M22.087 16.435h22v32h-22z"/><path fill-rule="evenodd" clip-rule="evenodd" d="M27.348 45.435a2.26 2.26 0 0 1-2.261-2.261v-21.43a2.26 2.26 0 0 1 2.253-2.26l11.29-.04a2.26 2.26 0 0 1 2.269 2.259l.013 21.47a2.26 2.26 0 0 1-2.261 2.262z"/></mask><path fill-rule="evenodd" clip-rule="evenodd" d="M27.348 45.435a2.26 2.26 0 0 1-2.261-2.261v-21.43a2.26 2.26 0 0 1 2.253-2.26l11.29-.04a2.26 2.26 0 0 1 2.269 2.259l.013 21.47a2.26 2.26 0 0 1-2.261 2.262z" fill="#90959c"/><path clip-rule="evenodd" d="M27.348 45.435a2.26 2.26 0 0 1-2.261-2.261v-21.43a2.26 2.26 0 0 1 2.253-2.26l11.29-.04a2.26 2.26 0 0 1 2.269 2.259l.013 21.47a2.26 2.26 0 0 1-2.261 2.262z" stroke="#55595e" stroke-width="4.522" mask="url(#b)"/><path fill-rule="evenodd" clip-rule="evenodd" d="M33 42.044c.625 0 1.131.506 1.131 1.13v2.26h-2.26v-2.26c0-.624.505-1.13 1.13-1.13zM33 25.565a1.13 1.13 0 0 1-1.131-1.13v-5h2.26v5a1.13 1.13 0 0 1-1.13 1.13z" fill="#fff"/><path d="M46.948 37.339h2.7v3.712a1.35 1.35 0 0 1-2.7 0zM34.124 37.339h2.7v3.712a1.35 1.35 0 1 1-2.7 0z" fill="#75011d"/><path d="M44.951 23.327a18.995 18.995 0 0 0-6.128 0 4.749 4.749 0 0 0-3.857 3.599l-.838 3.562c-.09.38-.295.718-.531 1.028a4.032 4.032 0 0 0-.823 2.448v1.012a4.05 4.05 0 0 0 4.05 4.05H46.95a4.05 4.05 0 0 0 4.05-4.05v-1.012c0-1.134-.466-2.16-1.217-2.895l-.975-4.143a4.749 4.749 0 0 0-3.856-3.6z" fill="#ff5252" stroke="#75011d" stroke-width="1.837"/><rect x="35.475" y="32.951" width="3.375" height="3.375" rx="1.688" fill="#fff"/><rect x="44.924" y="32.951" width="3.375" height="3.375" rx="1.688" fill="#fff"/><path d="m36.831 27.68-.208.76a1.37 1.37 0 0 0 1.322 1.733h7.882a1.37 1.37 0 0 0 1.322-1.733l-.208-.76a2.353 2.353 0 0 0-1.938-1.709 22.067 22.067 0 0 0-6.235 0 2.353 2.353 0 0 0-1.937 1.708z" fill="#75011d"/></g></svg>
